<?xml version="1.0" encoding="utf-8"?>
<!-- Generator: Adobe Illustrator 21.1.0, SVG Export Plug-In . SVG Version: 6.00 Build 0)  -->
<svg version="1.1" id="Layer_1" xmlns="http://www.w3.org/2000/svg" xmlns:xlink="http://www.w3.org/1999/xlink" x="0px" y="0px"
	 viewBox="0 0 800 800" style="enable-background:new 0 0 800 800;" xml:space="preserve">
<g>
	<polygon fill="#0ff" points="645.2,0 619.3,0 593.5,0 567.7,0 541.9,0 516.1,0 490.3,0 490.3,25.8 490.3,51.6 490.3,77.4 490.3,103.2 
		490.3,129 490.3,154.8 490.3,180.6 490.3,206.5 490.3,232.3 490.3,258.1 490.3,283.9 490.3,309.7 490.3,335.5 490.3,361.3 
		490.3,387.1 490.3,412.9 490.3,438.7 490.3,464.5 490.3,490.3 490.3,516.1 490.3,541.9 490.3,567.7 490.3,593.5 490.3,619.3 
		490.3,645.2 490.3,671 490.3,696.8 490.3,722.6 490.3,748.4 490.3,774.2 490.3,800 516.1,800 541.9,800 567.7,800 593.5,800 
		619.3,800 645.2,800 671,800 671,774.2 671,748.4 671,722.6 671,696.8 671,671 671,645.2 671,619.3 671,593.5 671,567.7 671,541.9 
		671,516.1 671,490.3 671,464.5 671,438.7 671,412.9 671,387.1 671,361.3 671,335.5 671,309.7 671,283.9 671,258.1 671,232.3 
		671,206.5 671,180.6 671,154.8 671,129 671,103.2 671,77.4 671,51.6 671,25.8 671,0 	"/>
	<polygon fill="#0ff" points="258.1,0 232.3,0 206.5,0 180.7,0 154.8,0 129,0 129,25.8 129,51.6 129,77.4 129,103.2 129,129 129,154.8 
		129,180.6 129,206.5 129,232.3 129,258.1 129,283.9 129,309.7 129,335.5 129,361.3 129,387.1 129,412.9 129,438.7 129,464.5 
		129,490.3 129,516.1 129,541.9 129,567.7 129,593.5 129,619.3 129,645.2 129,671 129,696.8 129,722.6 129,748.4 129,774.2 129,800 
		154.8,800 180.7,800 206.5,800 232.3,800 258.1,800 283.9,800 309.7,800 309.7,774.2 309.7,748.4 309.7,722.6 309.7,696.8 
		309.7,671 309.7,645.2 309.7,619.3 309.7,593.5 309.7,567.7 309.7,541.9 309.7,516.1 309.7,490.3 309.7,464.5 309.7,438.7 
		309.7,412.9 309.7,387.1 309.7,361.3 309.7,335.5 309.7,309.7 309.7,283.9 309.7,258.1 309.7,232.3 309.7,206.5 309.7,180.6 
		309.7,154.8 309.7,129 309.7,103.2 309.7,77.4 309.7,51.6 309.7,25.8 309.7,0 283.9,0 	"/>
</g>
</svg>
