<?xml version="1.0" encoding="utf-8"?>
<!-- Generator: Adobe Illustrator 21.1.0, SVG Export Plug-In . SVG Version: 6.00 Build 0)  -->
<svg version="1.1" id="Layer_1" xmlns="http://www.w3.org/2000/svg" xmlns:xlink="http://www.w3.org/1999/xlink" x="0px" y="0px"
	 viewBox="0 0 800 800" style="enable-background:new 0 0 800 800;" xml:space="preserve">
<polygon points="774.2,387.1 774.2,361.3 748.4,361.3 722.6,361.3 722.6,335.5 696.8,335.5 671,335.5 671,309.7 645.2,309.7 
	619.3,309.7 619.3,283.9 593.5,283.9 567.7,283.9 567.7,258.1 541.9,258.1 516.1,258.1 516.1,232.3 490.3,232.3 464.5,232.3 
	464.5,206.5 438.7,206.5 412.9,206.5 412.9,180.6 387.1,180.6 361.3,180.6 361.3,154.8 335.5,154.8 309.7,154.8 309.7,129 
	283.9,129 258.1,129 258.1,103.2 232.3,103.2 206.5,103.2 206.5,77.4 180.7,77.4 154.8,77.4 154.8,51.6 129,51.6 103.2,51.6 
	103.2,25.8 77.4,25.8 51.6,25.8 51.6,0 25.8,0 0,0 0,25.8 0,51.6 0,77.4 0,103.2 0,129 0,154.8 0,180.6 0,206.5 0,232.3 0,258.1 
	0,283.9 0,309.7 0,335.5 0,361.3 0,387.1 0,412.9 0,438.7 0,464.5 0,490.3 0,516.1 0,541.9 0,567.7 0,593.5 0,619.3 0,645.2 0,671 
	0,696.8 0,722.6 0,748.4 0,774.2 0,800 25.8,800 51.6,800 51.6,774.2 77.4,774.2 103.2,774.2 103.2,748.4 129,748.4 154.8,748.4 
	154.8,722.6 180.7,722.6 206.5,722.6 206.5,696.8 232.3,696.8 258.1,696.8 258.1,671 283.9,671 309.7,671 309.7,645.2 335.5,645.2 
	361.3,645.2 361.3,619.3 387.1,619.3 412.9,619.3 412.9,593.5 438.7,593.5 464.5,593.5 464.5,567.7 490.3,567.7 516.1,567.7 
	516.1,541.9 541.9,541.9 567.7,541.9 567.7,516.1 593.5,516.1 619.3,516.1 619.3,490.3 645.2,490.3 671,490.3 671,464.5 
	696.8,464.5 722.6,464.5 722.6,438.7 748.4,438.7 774.2,438.7 774.2,412.9 800,412.9 800,387.1 "/>
</svg>
