<?xml version="1.0" encoding="utf-8"?>
<!-- Generator: Adobe Illustrator 21.1.0, SVG Export Plug-In . SVG Version: 6.00 Build 0)  -->
<svg version="1.1" id="Layer_1" xmlns="http://www.w3.org/2000/svg" xmlns:xlink="http://www.w3.org/1999/xlink" x="0px" y="0px"
	 viewBox="0 0 800 104.9" style="enable-background:new 0 0 800 104.9;" xml:space="preserve">
<g>
	<rect x="786.9" y="65.6" width="13.1" height="13.1"/>
	<polygon points="773.8,65.6 773.8,52.5 773.8,39.3 773.8,26.2 773.8,13.1 773.8,0 760.7,0 760.7,13.1 747.5,13.1 747.5,26.2 
		760.7,26.2 760.7,39.3 760.7,52.5 760.7,65.6 760.7,78.7 760.7,91.8 760.7,104.9 773.8,104.9 773.8,91.8 786.9,91.8 786.9,78.7 
		773.8,78.7 	"/>
	<rect x="734.4" y="26.2" width="13.1" height="13.1"/>
	<rect x="721.3" y="39.3" width="13.1" height="13.1"/>
	<rect x="708.2" y="52.5" width="13.1" height="13.1"/>
	<rect x="695.1" y="65.6" width="13.1" height="13.1"/>
	<polygon points="682,65.6 682,52.5 682,39.3 682,26.2 682,13.1 682,0 668.8,0 668.8,13.1 655.7,13.1 655.7,26.2 668.8,26.2 
		668.8,39.3 668.8,52.5 668.8,65.6 668.8,78.7 668.8,91.8 668.8,104.9 682,104.9 682,91.8 695.1,91.8 695.1,78.7 682,78.7 	"/>
	<rect x="642.6" y="26.2" width="13.1" height="13.1"/>
	<rect x="629.5" y="39.3" width="13.1" height="13.1"/>
	<rect x="616.4" y="52.5" width="13.1" height="13.1"/>
	<rect x="603.3" y="65.6" width="13.1" height="13.1"/>
	<polygon points="590.2,65.6 590.2,52.5 590.2,39.3 590.2,26.2 590.2,13.1 590.2,0 577,0 577,13.1 563.9,13.1 563.9,26.2 577,26.2 
		577,39.3 577,52.5 577,65.6 577,78.7 577,91.8 577,104.9 590.2,104.9 590.2,91.8 603.3,91.8 603.3,78.7 590.2,78.7 	"/>
	<rect x="550.8" y="26.2" width="13.1" height="13.1"/>
	<rect x="537.7" y="39.3" width="13.1" height="13.1"/>
	<rect x="524.6" y="52.5" width="13.1" height="13.1"/>
	<rect x="511.5" y="65.6" width="13.1" height="13.1"/>
	<polygon points="498.4,65.6 498.4,52.5 498.4,39.3 498.4,26.2 498.4,13.1 498.4,0 485.2,0 485.2,13.1 472.1,13.1 472.1,26.2 
		485.2,26.2 485.2,39.3 485.2,52.5 485.2,65.6 485.2,78.7 485.2,91.8 485.2,104.9 498.4,104.9 498.4,91.8 511.5,91.8 511.5,78.7 
		498.4,78.7 	"/>
	<rect x="459" y="26.2" width="13.1" height="13.1"/>
	<rect x="445.9" y="39.3" width="13.1" height="13.1"/>
	<rect x="432.8" y="52.5" width="13.1" height="13.1"/>
	<rect x="419.7" y="65.6" width="13.1" height="13.1"/>
	<polygon points="406.6,65.6 406.6,52.5 406.6,39.3 406.6,26.2 406.6,13.1 406.6,0 393.4,0 393.4,13.1 380.3,13.1 380.3,26.2 
		393.4,26.2 393.4,39.3 393.4,52.5 393.4,65.6 393.4,78.7 393.4,91.8 393.4,104.9 406.6,104.9 406.6,91.8 419.7,91.8 419.7,78.7 
		406.6,78.7 	"/>
	<rect x="367.2" y="26.2" width="13.1" height="13.1"/>
	<rect x="354.1" y="39.3" width="13.1" height="13.1"/>
	<rect x="341" y="52.5" width="13.1" height="13.1"/>
	<rect x="327.9" y="65.6" width="13.1" height="13.1"/>
	<polygon points="314.8,65.6 314.8,52.5 314.8,39.3 314.8,26.2 314.8,13.1 314.8,0 301.6,0 301.6,13.1 288.5,13.1 288.5,26.2 
		301.6,26.2 301.6,39.3 301.6,52.5 301.6,65.6 301.6,78.7 301.6,91.8 301.6,104.9 314.8,104.9 314.8,91.8 327.9,91.8 327.9,78.7 
		314.8,78.7 	"/>
	<rect x="275.4" y="26.2" width="13.1" height="13.1"/>
	<rect x="262.3" y="39.3" width="13.1" height="13.1"/>
	<rect x="249.2" y="52.5" width="13.1" height="13.1"/>
	<rect x="236.1" y="65.6" width="13.1" height="13.1"/>
	<polygon points="223,65.6 223,52.5 223,39.3 223,26.2 223,13.1 223,0 209.8,0 209.8,13.1 196.7,13.1 196.7,26.2 209.8,26.2 
		209.8,39.3 209.8,52.5 209.8,65.6 209.8,78.7 209.8,91.8 209.8,104.9 223,104.9 223,91.8 236.1,91.8 236.1,78.7 223,78.7 	"/>
	<rect x="183.6" y="26.2" width="13.1" height="13.1"/>
	<rect x="170.5" y="39.3" width="13.1" height="13.1"/>
	<rect x="157.4" y="52.5" width="13.1" height="13.1"/>
	<rect x="144.3" y="65.6" width="13.1" height="13.1"/>
	<polygon points="131.2,65.6 131.2,52.5 131.2,39.3 131.2,26.2 131.2,13.1 131.2,0 118,0 118,13.1 104.9,13.1 104.9,26.2 118,26.2 
		118,39.3 118,52.5 118,65.6 118,78.7 118,91.8 118,104.9 131.2,104.9 131.2,91.8 144.3,91.8 144.3,78.7 131.2,78.7 	"/>
	<rect x="91.8" y="26.2" width="13.1" height="13.1"/>
	<rect x="78.7" y="39.3" width="13.1" height="13.1"/>
	<rect x="65.6" y="52.5" width="13.1" height="13.1"/>
	<rect x="52.5" y="65.6" width="13.1" height="13.1"/>
	<polygon points="39.3,65.6 39.3,52.5 39.3,39.3 39.3,26.2 39.3,13.1 39.3,0 26.2,0 26.2,13.1 13.1,13.1 13.1,26.2 26.2,26.2 
		26.2,39.3 26.2,52.5 26.2,65.6 26.2,78.7 26.2,91.8 26.2,104.9 39.3,104.9 39.3,91.8 52.5,91.8 52.5,78.7 39.3,78.7 	"/>
	<rect y="26.2" width="13.1" height="13.1"/>
</g>
</svg>
