<?xml version="1.0" encoding="utf-8"?>
<!-- Generator: Adobe Illustrator 21.1.0, SVG Export Plug-In . SVG Version: 6.00 Build 0)  -->
<svg version="1.1" id="Layer_1" xmlns="http://www.w3.org/2000/svg" xmlns:xlink="http://www.w3.org/1999/xlink" x="0px" y="0px"
	 viewBox="0 0 800 104.9" style="enable-background:new 0 0 800 104.9;" xml:space="preserve">
<polygon points="786.9,91.8 773.8,91.8 760.7,91.8 760.7,78.7 760.7,65.6 760.7,52.5 760.7,39.3 760.7,26.2 760.7,13.1 760.7,0 
	747.5,0 734.4,0 721.3,0 708.2,0 708.2,13.1 708.2,26.2 708.2,39.3 708.2,52.5 708.2,65.6 708.2,78.7 708.2,91.8 695.1,91.8 
	682,91.8 668.8,91.8 655.7,91.8 642.6,91.8 629.5,91.8 629.5,78.7 629.5,65.6 629.5,52.5 629.5,39.3 629.5,26.2 629.5,13.1 629.5,0 
	616.4,0 603.3,0 590.2,0 577,0 577,13.1 577,26.2 577,39.3 577,52.5 577,65.6 577,78.7 577,91.8 563.9,91.8 550.8,91.8 537.7,91.8 
	524.6,91.8 511.5,91.8 498.4,91.8 498.4,78.7 498.4,65.6 498.4,52.5 498.4,39.3 498.4,26.2 498.4,13.1 498.4,0 485.2,0 472.1,0 
	459,0 445.9,0 445.9,13.1 445.9,26.2 445.9,39.3 445.9,52.5 445.9,65.6 445.9,78.7 445.9,91.8 432.8,91.8 419.7,91.8 406.6,91.8 
	393.4,91.8 380.3,91.8 367.2,91.8 367.2,78.7 367.2,65.6 367.2,52.5 367.2,39.3 367.2,26.2 367.2,13.1 367.2,0 354.1,0 341,0 
	327.9,0 314.8,0 314.8,13.1 314.8,26.2 314.8,39.3 314.8,52.5 314.8,65.6 314.8,78.7 314.8,91.8 301.6,91.8 288.5,91.8 275.4,91.8 
	262.3,91.8 249.2,91.8 236.1,91.8 236.1,78.7 236.1,65.6 236.1,52.5 236.1,39.3 236.1,26.2 236.1,13.1 236.1,0 223,0 209.8,0 
	196.7,0 183.6,0 183.6,13.1 183.6,26.2 183.6,39.3 183.6,52.5 183.6,65.6 183.6,78.7 183.6,91.8 170.5,91.8 157.4,91.8 144.3,91.8 
	131.2,91.8 118,91.8 104.9,91.8 104.9,78.7 104.9,65.6 104.9,52.5 104.9,39.3 104.9,26.2 104.9,13.1 104.9,0 91.8,0 78.7,0 65.6,0 
	52.5,0 52.5,13.1 52.5,26.2 52.5,39.3 52.5,52.5 52.5,65.6 52.5,78.7 52.5,91.8 39.3,91.8 26.2,91.8 13.1,91.8 0,91.8 0,104.9 
	13.1,104.9 26.2,104.9 39.3,104.9 52.5,104.9 65.6,104.9 65.6,91.8 65.6,78.7 65.6,65.6 65.6,52.5 65.6,39.3 65.6,26.2 65.6,13.1 
	78.7,13.1 91.8,13.1 91.8,26.2 91.8,39.3 91.8,52.5 91.8,65.6 91.8,78.7 91.8,91.8 91.8,104.9 104.9,104.9 118,104.9 131.2,104.9 
	144.3,104.9 157.4,104.9 170.5,104.9 183.6,104.9 196.7,104.9 196.7,91.8 196.7,78.7 196.7,65.6 196.7,52.5 196.7,39.3 196.7,26.2 
	196.7,13.1 209.8,13.1 223,13.1 223,26.2 223,39.3 223,52.5 223,65.6 223,78.7 223,91.8 223,104.9 236.1,104.9 249.2,104.9 
	262.3,104.9 275.4,104.9 288.5,104.9 301.6,104.9 314.8,104.9 327.9,104.9 327.9,91.8 327.9,78.7 327.9,65.6 327.9,52.5 327.9,39.3 
	327.9,26.2 327.9,13.1 341,13.1 354.1,13.1 354.1,26.2 354.1,39.3 354.1,52.5 354.1,65.6 354.1,78.7 354.1,91.8 354.1,104.9 
	367.2,104.9 380.3,104.9 393.4,104.9 406.6,104.9 419.7,104.9 432.8,104.9 445.9,104.9 459,104.9 459,91.8 459,78.7 459,65.6 
	459,52.5 459,39.3 459,26.2 459,13.1 472.1,13.1 485.2,13.1 485.2,26.2 485.2,39.3 485.2,52.5 485.2,65.6 485.2,78.7 485.2,91.8 
	485.2,104.9 498.4,104.9 511.5,104.9 524.6,104.9 537.7,104.9 550.8,104.9 563.9,104.9 577,104.9 590.2,104.9 590.2,91.8 
	590.2,78.7 590.2,65.6 590.2,52.5 590.2,39.3 590.2,26.2 590.2,13.1 603.3,13.1 616.4,13.1 616.4,26.2 616.4,39.3 616.4,52.5 
	616.4,65.6 616.4,78.7 616.4,91.8 616.4,104.9 629.5,104.9 642.6,104.9 655.7,104.9 668.8,104.9 682,104.9 695.1,104.9 708.2,104.9 
	721.3,104.9 721.3,91.8 721.3,78.7 721.3,65.6 721.3,52.5 721.3,39.3 721.3,26.2 721.3,13.1 734.4,13.1 747.5,13.1 747.5,26.2 
	747.5,39.3 747.5,52.5 747.5,65.6 747.5,78.7 747.5,91.8 747.5,104.9 760.7,104.9 773.8,104.9 786.9,104.9 800,104.9 800,91.8 "/>
</svg>
