<?xml version="1.0" encoding="utf-8"?>
<!-- Generator: Adobe Illustrator 21.1.0, SVG Export Plug-In . SVG Version: 6.00 Build 0)  -->
<svg version="1.1" id="Layer_1" xmlns="http://www.w3.org/2000/svg" xmlns:xlink="http://www.w3.org/1999/xlink" x="0px" y="0px"
	 viewBox="0 0 800 104.9" style="enable-background:new 0 0 800 104.9;" xml:space="preserve">
<polygon points="786.9,13.1 786.9,26.2 773.8,26.2 773.8,13.1 760.7,13.1 760.7,0 747.5,0 747.5,13.1 734.4,13.1 721.3,13.1 
	708.2,13.1 695.1,13.1 695.1,0 682,0 682,13.1 682,26.2 668.8,26.2 668.8,13.1 655.7,13.1 655.7,26.2 642.6,26.2 642.6,13.1 
	629.5,13.1 616.4,13.1 616.4,0 603.3,0 590.2,0 590.2,13.1 590.2,26.2 577,26.2 577,13.1 577,0 563.9,0 563.9,13.1 563.9,26.2 
	550.8,26.2 550.8,13.1 550.8,0 537.7,0 537.7,13.1 524.6,13.1 511.5,13.1 511.5,26.2 498.4,26.2 498.4,13.1 498.4,0 485.2,0 
	485.2,13.1 485.2,26.2 472.1,26.2 472.1,13.1 459,13.1 459,0 445.9,0 445.9,13.1 445.9,26.2 432.8,26.2 432.8,13.1 419.7,13.1 
	419.7,0 406.6,0 406.6,13.1 406.6,26.2 393.4,26.2 380.3,26.2 380.3,13.1 380.3,0 367.2,0 367.2,13.1 354.1,13.1 354.1,0 341,0 
	327.9,0 327.9,13.1 327.9,26.2 314.8,26.2 314.8,13.1 314.8,0 301.6,0 301.6,13.1 288.5,13.1 288.5,0 275.4,0 275.4,13.1 
	262.3,13.1 262.3,0 249.2,0 249.2,13.1 236.1,13.1 223,13.1 223,0 209.8,0 209.8,13.1 209.8,26.2 196.7,26.2 196.7,13.1 196.7,0 
	183.6,0 183.6,13.1 183.6,26.2 170.5,26.2 170.5,13.1 157.4,13.1 144.3,13.1 144.3,0 131.2,0 131.2,13.1 118,13.1 118,0 104.9,0 
	104.9,13.1 104.9,26.2 91.8,26.2 91.8,13.1 91.8,0 78.7,0 65.6,0 65.6,13.1 52.5,13.1 52.5,0 39.3,0 39.3,13.1 26.2,13.1 13.1,13.1 
	13.1,0 0,0 0,13.1 0,26.2 0,39.3 0,52.5 0,65.6 0,78.7 0,91.8 0,104.9 13.1,104.9 13.1,91.8 26.2,91.8 39.3,91.8 39.3,104.9 
	52.5,104.9 52.5,91.8 65.6,91.8 65.6,104.9 78.7,104.9 91.8,104.9 91.8,91.8 91.8,78.7 104.9,78.7 104.9,91.8 104.9,104.9 
	118,104.9 118,91.8 131.2,91.8 131.2,104.9 144.3,104.9 144.3,91.8 157.4,91.8 170.5,91.8 170.5,78.7 183.6,78.7 183.6,91.8 
	183.6,104.9 196.7,104.9 196.7,91.8 196.7,78.7 209.8,78.7 209.8,91.8 209.8,104.9 223,104.9 223,91.8 236.1,91.8 249.2,91.8 
	249.2,104.9 262.3,104.9 262.3,91.8 275.4,91.8 275.4,104.9 288.5,104.9 288.5,91.8 301.6,91.8 301.6,104.9 314.8,104.9 314.8,91.8 
	314.8,78.7 327.9,78.7 327.9,91.8 327.9,104.9 341,104.9 354.1,104.9 354.1,91.8 367.2,91.8 367.2,104.9 380.3,104.9 380.3,91.8 
	380.3,78.7 393.4,78.7 406.6,78.7 406.6,91.8 406.6,104.9 419.7,104.9 419.7,91.8 432.8,91.8 432.8,78.7 445.9,78.7 445.9,91.8 
	445.9,104.9 459,104.9 459,91.8 472.1,91.8 472.1,78.7 485.2,78.7 485.2,91.8 485.2,104.9 498.4,104.9 498.4,91.8 498.4,78.7 
	511.5,78.7 511.5,91.8 524.6,91.8 537.7,91.8 537.7,104.9 550.8,104.9 550.8,91.8 550.8,78.7 563.9,78.7 563.9,91.8 563.9,104.9 
	577,104.9 577,91.8 577,78.7 590.2,78.7 590.2,91.8 590.2,104.9 603.3,104.9 616.4,104.9 616.4,91.8 629.5,91.8 642.6,91.8 
	642.6,78.7 655.7,78.7 655.7,91.8 668.8,91.8 668.8,78.7 682,78.7 682,91.8 682,104.9 695.1,104.9 695.1,91.8 708.2,91.8 
	721.3,91.8 734.4,91.8 747.5,91.8 747.5,104.9 760.7,104.9 760.7,91.8 773.8,91.8 773.8,78.7 786.9,78.7 786.9,91.8 800,91.8 
	800,78.7 800,65.6 800,52.5 800,39.3 800,26.2 800,13.1 "/>
</svg>
