<?xml version="1.0" encoding="utf-8"?>
<!-- Generator: Adobe Illustrator 21.1.0, SVG Export Plug-In . SVG Version: 6.00 Build 0)  -->
<svg version="1.1" id="Layer_1" xmlns="http://www.w3.org/2000/svg" xmlns:xlink="http://www.w3.org/1999/xlink" x="0px" y="0px"
	 viewBox="0 0 800 104.9" style="enable-background:new 0 0 800 104.9;" xml:space="preserve">
<polygon points="786.9,0 773.8,0 760.7,0 760.7,13.1 760.7,26.2 760.7,39.3 760.7,52.5 760.7,65.6 760.7,78.7 760.7,91.8 
	747.5,91.8 734.4,91.8 721.3,91.8 708.2,91.8 695.1,91.8 682,91.8 682,78.7 682,65.6 682,52.5 682,39.3 682,26.2 682,13.1 682,0 
	668.8,0 655.7,0 642.6,0 629.5,0 616.4,0 603.3,0 590.2,0 577,0 577,13.1 577,26.2 577,39.3 577,52.5 577,65.6 577,78.7 577,91.8 
	563.9,91.8 550.8,91.8 537.7,91.8 524.6,91.8 511.5,91.8 498.4,91.8 498.4,78.7 498.4,65.6 498.4,52.5 498.4,39.3 498.4,26.2 
	498.4,13.1 498.4,0 485.2,0 472.1,0 459,0 445.9,0 432.8,0 419.7,0 406.6,0 393.4,0 393.4,13.1 393.4,26.2 393.4,39.3 393.4,52.5 
	393.4,65.6 393.4,78.7 393.4,91.8 380.3,91.8 367.2,91.8 354.1,91.8 341,91.8 327.9,91.8 314.8,91.8 314.8,78.7 314.8,65.6 
	314.8,52.5 314.8,39.3 314.8,26.2 314.8,13.1 314.8,0 301.6,0 288.5,0 275.4,0 262.3,0 249.2,0 236.1,0 223,0 209.8,0 209.8,13.1 
	209.8,26.2 209.8,39.3 209.8,52.5 209.8,65.6 209.8,78.7 209.8,91.8 196.7,91.8 183.6,91.8 170.5,91.8 157.4,91.8 144.3,91.8 
	131.2,91.8 131.2,78.7 131.2,65.6 131.2,52.5 131.2,39.3 131.2,26.2 131.2,13.1 131.2,0 118,0 104.9,0 91.8,0 78.7,0 65.6,0 52.5,0 
	39.3,0 26.2,0 26.2,13.1 26.2,26.2 26.2,39.3 26.2,52.5 26.2,65.6 26.2,78.7 26.2,91.8 13.1,91.8 0,91.8 0,104.9 13.1,104.9 
	26.2,104.9 39.3,104.9 39.3,91.8 39.3,78.7 39.3,65.6 39.3,52.5 39.3,39.3 39.3,26.2 39.3,13.1 52.5,13.1 65.6,13.1 78.7,13.1 
	91.8,13.1 104.9,13.1 118,13.1 118,26.2 118,39.3 118,52.5 118,65.6 118,78.7 118,91.8 118,104.9 131.2,104.9 144.3,104.9 
	157.4,104.9 170.5,104.9 183.6,104.9 196.7,104.9 209.8,104.9 223,104.9 223,91.8 223,78.7 223,65.6 223,52.5 223,39.3 223,26.2 
	223,13.1 236.1,13.1 249.2,13.1 262.3,13.1 275.4,13.1 288.5,13.1 301.6,13.1 301.6,26.2 301.6,39.3 301.6,52.5 301.6,65.6 
	301.6,78.7 301.6,91.8 301.6,104.9 314.8,104.9 327.9,104.9 341,104.9 354.1,104.9 367.2,104.9 380.3,104.9 393.4,104.9 
	406.6,104.9 406.6,91.8 406.6,78.7 406.6,65.6 406.6,52.5 406.6,39.3 406.6,26.2 406.6,13.1 419.7,13.1 432.8,13.1 445.9,13.1 
	459,13.1 472.1,13.1 485.2,13.1 485.2,26.2 485.2,39.3 485.2,52.5 485.2,65.6 485.2,78.7 485.2,91.8 485.2,104.9 498.4,104.9 
	511.5,104.9 524.6,104.9 537.7,104.9 550.8,104.9 563.9,104.9 577,104.9 590.2,104.9 590.2,91.8 590.2,78.7 590.2,65.6 590.2,52.5 
	590.2,39.3 590.2,26.2 590.2,13.1 603.3,13.1 616.4,13.1 629.5,13.1 642.6,13.1 655.7,13.1 668.8,13.1 668.8,26.2 668.8,39.3 
	668.8,52.5 668.8,65.6 668.8,78.7 668.8,91.8 668.8,104.9 682,104.9 695.1,104.9 708.2,104.9 721.3,104.9 734.4,104.9 747.5,104.9 
	760.7,104.9 773.8,104.9 773.8,91.8 773.8,78.7 773.8,65.6 773.8,52.5 773.8,39.3 773.8,26.2 773.8,13.1 786.9,13.1 800,13.1 800,0 
	"/>
</svg>
