<?xml version="1.0" encoding="utf-8"?>
<!-- Generator: Adobe Illustrator 21.1.0, SVG Export Plug-In . SVG Version: 6.00 Build 0)  -->
<svg version="1.1" id="Layer_1" xmlns="http://www.w3.org/2000/svg" xmlns:xlink="http://www.w3.org/1999/xlink" x="0px" y="0px"
	 viewBox="0 0 800 91.8" style="enable-background:new 0 0 800 91.8;" xml:space="preserve">
<g>
	<rect y="39.3" width="13.1" height="13.1"/>
	<rect x="13.1" y="26.2" width="13.1" height="13.1"/>
	<rect x="26.2" y="13.1" width="13.1" height="13.1"/>
	<rect x="786.9" y="39.3" width="13.1" height="13.1"/>
	<rect x="773.8" y="52.5" width="13.1" height="13.1"/>
	<rect x="760.7" y="65.6" width="13.1" height="13.1"/>
	<rect x="747.5" y="78.7" width="13.1" height="13.1"/>
	<rect x="734.4" y="65.6" width="13.1" height="13.1"/>
	<rect x="721.3" y="52.5" width="13.1" height="13.1"/>
	<rect x="708.2" y="39.3" width="13.1" height="13.1"/>
	<rect x="695.1" y="26.2" width="13.1" height="13.1"/>
	<rect x="682" y="13.1" width="13.1" height="13.1"/>
	<rect x="668.8" width="13.1" height="13.1"/>
	<rect x="655.7" y="13.1" width="13.1" height="13.1"/>
	<rect x="642.6" y="26.2" width="13.1" height="13.1"/>
	<rect x="629.5" y="39.3" width="13.1" height="13.1"/>
	<rect x="616.4" y="52.5" width="13.1" height="13.1"/>
	<rect x="603.3" y="65.6" width="13.1" height="13.1"/>
	<rect x="590.2" y="78.7" width="13.1" height="13.1"/>
	<rect x="577" y="65.6" width="13.1" height="13.1"/>
	<rect x="563.9" y="52.5" width="13.1" height="13.1"/>
	<rect x="550.8" y="39.3" width="13.1" height="13.1"/>
	<rect x="537.7" y="26.2" width="13.1" height="13.1"/>
	<rect x="524.6" y="13.1" width="13.1" height="13.1"/>
	<rect x="511.5" width="13.1" height="13.1"/>
	<rect x="498.4" y="13.1" width="13.1" height="13.1"/>
	<rect x="485.2" y="26.2" width="13.1" height="13.1"/>
	<rect x="472.1" y="39.3" width="13.1" height="13.1"/>
	<rect x="459" y="52.5" width="13.1" height="13.1"/>
	<rect x="445.9" y="65.6" width="13.1" height="13.1"/>
	<rect x="432.8" y="78.7" width="13.1" height="13.1"/>
	<rect x="419.7" y="65.6" width="13.1" height="13.1"/>
	<rect x="406.6" y="52.5" width="13.1" height="13.1"/>
	<rect x="393.4" y="39.3" width="13.1" height="13.1"/>
	<rect x="380.3" y="26.2" width="13.1" height="13.1"/>
	<rect x="367.2" y="13.1" width="13.1" height="13.1"/>
	<rect x="354.1" width="13.1" height="13.1"/>
	<rect x="341" y="13.1" width="13.1" height="13.1"/>
	<rect x="327.9" y="26.2" width="13.1" height="13.1"/>
	<rect x="314.8" y="39.3" width="13.1" height="13.1"/>
	<rect x="301.6" y="52.5" width="13.1" height="13.1"/>
	<rect x="288.5" y="65.6" width="13.1" height="13.1"/>
	<rect x="275.4" y="78.7" width="13.1" height="13.1"/>
	<rect x="262.3" y="65.6" width="13.1" height="13.1"/>
	<rect x="249.2" y="52.5" width="13.1" height="13.1"/>
	<rect x="236.1" y="39.3" width="13.1" height="13.1"/>
	<rect x="223" y="26.2" width="13.1" height="13.1"/>
	<rect x="209.8" y="13.1" width="13.1" height="13.1"/>
	<rect x="196.7" width="13.1" height="13.1"/>
	<rect x="183.6" y="13.1" width="13.1" height="13.1"/>
	<rect x="170.5" y="26.2" width="13.1" height="13.1"/>
	<rect x="157.4" y="39.3" width="13.1" height="13.1"/>
	<rect x="144.3" y="52.5" width="13.1" height="13.1"/>
	<rect x="131.2" y="65.6" width="13.1" height="13.1"/>
	<rect x="118" y="78.7" width="13.1" height="13.1"/>
	<rect x="104.9" y="65.6" width="13.1" height="13.1"/>
	<rect x="91.8" y="52.5" width="13.1" height="13.1"/>
	<rect x="78.7" y="39.3" width="13.1" height="13.1"/>
	<rect x="65.6" y="26.2" width="13.1" height="13.1"/>
	<rect x="52.5" y="13.1" width="13.1" height="13.1"/>
	<rect x="39.3" width="13.1" height="13.1"/>
</g>
</svg>
